<svg width="742" height="672" viewBox="0 0 742 672" fill="none" xmlns="http://www.w3.org/2000/svg">
<path fill-rule="evenodd" clip-rule="evenodd" d="M368.296 1.08265C368.027 1.9865 366.141 11.1253 364.105 21.391C355.396 65.2963 340.854 97.081 314.744 129.28C305.327 140.892 302.403 143.435 292.02 149.042C282.99 153.919 282.981 155.815 291.982 157.524C295.935 158.274 300.468 159.738 302.056 160.777C304.882 162.627 304.942 162.997 304.942 178.713C304.942 194.58 304.984 194.839 308.757 201.694L312.572 208.628L306.379 245.503C297.076 300.892 284.886 380.789 284.819 386.805L284.762 392.115L282.625 388.108C280.203 383.568 280.058 383.698 277.189 392.987C275.536 398.333 273.983 400.669 269.806 404.088L264.517 408.417L265.293 415.266C266.155 422.875 264.67 427.109 258.93 433.414C256.107 436.513 255.521 438.566 254.213 449.933C253.37 457.243 252.007 463.716 251.092 464.751C250.199 465.762 245.749 468.948 241.205 471.831C234.768 475.915 232.642 477.984 231.58 481.202C229.722 486.828 228.607 488.016 222.089 491.316C217.266 493.757 216.344 494.801 215.651 498.598C214.598 504.386 209.38 514.758 201.255 527.221C191.788 541.74 188 548.331 188 550.282C188 551.771 199.803 552 276.448 552C346.18 552 365.157 551.685 366.132 550.512C368.468 547.699 375.588 521.893 378.091 507.161C384.169 471.38 383.992 445.56 377.553 428.636C375.837 424.125 373.734 418.575 372.881 416.304C371.111 411.589 370.115 365.567 371.625 358.193C372.261 355.082 371.966 352.362 370.629 349.024C369.583 346.414 368.771 342.563 368.823 340.468C368.908 336.983 369.26 337.364 372.93 344.916C376.876 353.039 376.947 353.459 377.185 370.285C377.392 384.926 377.745 387.811 379.631 390.28C381.393 392.589 381.79 394.97 381.615 402.206L381.397 411.247L387.425 419.103C398.872 434.021 400.786 445.835 401.403 505.391L401.882 551.41L477.44 551.713C518.998 551.881 553 551.608 553 551.108C553 550.608 551.15 547.455 548.889 544.1C542.674 534.881 538.218 525.373 534.802 514.038L531.718 503.804L525.822 501.848C520.123 499.958 516.382 496.546 516.382 493.24C516.382 489.983 506.63 466.866 503.877 463.598C502.309 461.735 501.026 459.665 501.026 458.998C501.026 458.33 499.708 456.219 498.096 454.306C493.537 448.892 490.226 440.018 490.226 433.207C490.226 427.687 489.686 426.428 484.601 420.099C480.108 414.506 478.675 411.582 477.477 405.556C475.214 394.182 475.129 393.992 471.411 392.071C468.925 390.787 467.951 389.416 467.951 387.201C467.951 383.936 457.73 365.566 455.914 365.566C455.325 365.566 454.12 367.285 453.236 369.386L451.627 373.208L451.058 369.091C450.744 366.828 446.707 341.878 442.085 313.647C437.464 285.416 431.786 250.159 429.468 235.297L425.254 208.275L429.18 200.539C433.027 192.957 433.105 192.495 433.105 177.49V162.179L436.83 159.993C438.879 158.791 443.264 157.487 446.575 157.095C450.478 156.634 452.595 155.824 452.595 154.796C452.595 153.922 449.172 151.049 444.988 148.408C435.862 142.651 427.136 133.471 416.11 118.027C393.868 86.8732 383.273 62.0042 374.096 19.4217C370.061 0.702697 369.209 -1.99234 368.296 1.08265ZM351.01 130.494L344.513 134.882L344.183 149.755C343.912 162.039 344.174 164.891 345.688 166.147C347.275 167.461 346.616 168.126 340.831 171.039C337.15 172.894 333.949 174.411 333.715 174.411C332.809 174.411 333.35 170.103 334.39 169.042C335.011 168.408 335.198 162.767 334.82 156.027L334.151 144.133L327.52 147.648C315.337 154.108 315.337 154.108 315.644 169.691C315.791 177.155 315.504 184.213 315.006 185.377C313.278 189.412 315.535 188.843 325.864 182.644C331.573 179.216 341.826 173.44 348.647 169.807C360.735 163.369 361.29 163.202 370.5 163.202H379.95L399.44 173.645C410.16 179.391 419.808 184.867 420.881 185.817C422.413 187.175 423.026 187.228 423.747 186.062C424.267 185.222 424.063 184.38 423.274 184.118C422.308 183.795 421.884 179.202 421.884 169.049C421.884 152.517 422.054 152.873 411.313 146.909L405.346 143.596L405.294 149.859C405.266 153.304 404.767 158.511 404.185 161.432C403.355 165.597 403.493 167.023 404.827 168.051C405.762 168.772 406.528 169.936 406.528 170.637C406.528 173.398 403.818 173.315 399.441 170.422C395.116 167.563 394.898 167.137 395.632 162.936C396.059 160.486 396.427 153.178 396.448 146.695L396.487 134.907L389.99 130.506C386.417 128.086 382.772 126.088 381.889 126.069C380.59 126.04 380.362 129.346 380.694 143.437C381.046 158.436 380.861 160.763 379.345 160.273C377.056 159.531 365.271 159.527 362.231 160.267C359.96 160.819 359.856 160.168 359.542 143.437C359.362 133.864 358.831 126.049 358.361 126.069C357.89 126.088 354.583 128.08 351.01 130.494ZM385.465 161.622C385.68 163.139 386.653 164.382 387.628 164.382C390.19 164.382 389.837 159.778 387.237 159.278C385.56 158.955 385.161 159.481 385.465 161.622ZM351.01 162.71C351.01 165.585 353.77 165.179 354.344 162.219C354.571 161.054 353.969 160.252 352.868 160.252C351.773 160.252 351.01 161.261 351.01 162.71ZM411.779 175.694C410.563 177.662 413.3 179.918 414.93 178.29C416.293 176.928 415.44 174.411 413.615 174.411C413.042 174.411 412.216 174.988 411.779 175.694ZM324.051 177.558C324.625 180.519 327.385 180.925 327.385 178.049C327.385 176.6 326.622 175.591 325.527 175.591C324.426 175.591 323.824 176.394 324.051 177.558ZM359.869 181.49C357.92 182.599 349.947 187.089 342.15 191.469C325.043 201.08 322.66 203.106 322.66 208.05C322.66 216.365 308.105 309.527 304.302 325.553C302.055 335.021 300.217 344.325 300.217 346.229C300.217 350.678 294.744 393.935 292.62 406.274C291.727 411.466 291.136 415.86 291.306 416.039C292.18 416.958 305.335 414.562 306.656 413.243C308.111 411.789 309.093 396.278 310.206 357.155C310.385 350.907 310.899 345.198 311.349 344.47C311.889 343.599 310.901 343.146 308.462 343.146C304.902 343.146 304.786 342.993 305.555 339.311C307.155 331.652 322.827 307.803 326.284 307.766C327.302 307.756 331.087 310.536 334.693 313.942C344.322 323.037 348.156 334.886 341.47 334.886C339.467 334.886 339.154 335.314 339.957 336.951C341.23 339.548 341.984 391.139 340.94 404.24C340.223 413.238 339.845 414.342 336.136 418.27C333.922 420.616 332.092 422.858 332.071 423.254C331.734 429.539 329.618 440.408 328.459 441.802C327.631 442.799 323.595 445.136 319.49 446.996C311.912 450.429 309.68 453.187 309.656 459.154C309.649 460.996 307.695 462.988 302.821 466.124C295.929 470.56 263.153 500.709 256.927 508.341L253.558 512.471L258.283 508.619C271.035 498.222 282.543 489.999 292.696 484.029C308.555 474.705 312.676 470.457 313.587 462.493C314.481 454.674 315.312 453.662 324.048 449.745C333.989 445.289 335.654 442.747 335.654 432.024C335.654 423.322 335.677 423.258 340.848 417.728C346.702 411.47 349.152 404.886 349.284 395.065C349.334 391.376 350.52 385.572 352.033 381.619C354.106 376.203 354.64 372.599 354.447 365.338C354.21 356.343 354.333 355.876 357.894 352.205L361.588 348.398L362.769 273.5C363.42 232.305 364.238 194.523 364.588 189.538C364.939 184.554 364.818 180.251 364.32 179.975C363.82 179.7 361.818 180.382 359.869 181.49ZM379.356 188.787C379.352 200.398 383.933 256.305 391.576 337.915L394.125 365.132L398.757 369.184L403.391 373.235L402.664 369.588C402.263 367.581 401.579 360.413 401.145 353.659C400.683 346.502 399.661 340.275 398.698 338.738C397.245 336.418 397.297 335.827 399.128 333.845C400.274 332.606 403.338 328.637 405.937 325.029C408.536 321.42 411.323 318.444 412.131 318.416C414.002 318.353 420.049 326.575 424.024 334.584C426.376 339.325 426.769 341.098 425.706 342.16C424.643 343.222 424.051 342.878 423.176 340.692L422.034 337.836L421.958 340.528C421.918 342.009 422.694 343.531 423.686 343.911C425.073 344.443 425.177 344.976 424.135 346.229C422.818 347.815 423.075 358.192 425.021 381.945L425.734 390.655L430.167 392.394C433.993 393.896 435.188 395.371 438.872 403.154C441.22 408.115 443.142 411.112 443.141 409.814C443.137 400.668 436.069 342.634 433.618 331.626C430.172 316.152 418.94 241.088 415.78 212.412C414.084 197.029 416.583 199.792 393.239 187.476L379.359 180.153L379.356 188.787ZM389.4 225.301L389.955 248.159L396.035 250.265C399.379 251.423 402.396 252.09 402.741 251.746C403.084 251.402 402.785 249.127 402.075 246.69C401.366 244.253 400.271 234.109 399.641 224.148C399.013 214.187 398.029 205.568 397.456 204.996C396.883 204.424 394.71 203.614 392.628 203.199L388.843 202.442L389.4 225.301ZM341.56 214.499C341.56 215.132 340.011 216.449 338.119 217.427C334.148 219.478 334.203 219.079 332.215 259.752C331.521 273.937 330.538 283.787 329.717 284.775C327.986 286.857 329.216 288.868 332.219 288.868C334.768 288.868 345.717 283.662 346.779 281.944C347.142 281.356 346.582 280.164 345.534 279.295C343.825 277.879 343.717 274.376 344.488 245.532C345.267 216.43 345.167 213.35 343.455 213.35C342.413 213.35 341.56 213.867 341.56 214.499ZM402.176 278.904L402.393 304.25L408.299 306.483C414.252 308.735 417.519 308.091 415.097 305.142C414.38 304.27 413.476 293.658 412.983 280.328C412.436 265.548 411.639 256.663 410.801 256.009C410.075 255.444 407.788 254.661 405.72 254.27L401.959 253.559L402.176 278.904ZM322.726 317.547L319.841 321.317L322.911 318.56C326.546 315.297 328.977 316.11 333.778 322.195C335.445 324.308 336.815 325.375 336.822 324.565C336.84 322.617 328.666 313.629 326.953 313.712C326.216 313.749 324.314 315.474 322.726 317.547ZM316.815 325.361C313.748 329.664 309.717 338.426 309.721 340.786C309.722 341.76 310.949 339.579 312.447 335.939C313.946 332.3 316.362 327.654 317.816 325.614C319.269 323.575 320.193 321.907 319.868 321.907C319.543 321.907 318.169 323.461 316.815 325.361ZM336.227 329.016C335.745 329.794 336.084 330.885 336.979 331.441C338.943 332.66 340.002 330.498 338.282 328.78C337.495 327.994 336.81 328.073 336.227 329.016ZM395.896 331.277C395.896 331.888 396.428 332.715 397.078 333.117C397.727 333.518 398.259 333.017 398.259 332.006C398.259 330.995 397.727 330.167 397.078 330.167C396.428 330.167 395.896 330.666 395.896 331.277ZM405.346 381.581C405.346 383.618 406.864 385.979 409.957 388.752C412.88 391.374 414.839 394.33 415.308 396.83C415.842 399.67 417.195 401.449 420.147 403.189C423.595 405.222 424.246 406.267 424.246 409.774C424.246 413.387 424.624 413.944 427.076 413.944C431.398 413.944 437.654 421.606 436.804 425.855C436.228 428.73 437.574 430.844 447.035 441.916C453.027 448.929 459.18 456.419 460.707 458.562C462.234 460.705 463.737 462.207 464.045 461.899C465.27 460.674 459.462 450.062 454.407 444.29C448.807 437.895 447.849 435.976 450.824 437.116C454.216 438.417 452.552 435.814 445.803 429.259C436.063 419.799 431.407 414.049 428.938 408.436C427.748 405.732 425.19 402.347 423.253 400.916C420.933 399.203 419.463 396.854 418.949 394.035C418.428 391.178 416.347 387.892 412.688 384.15C409.673 381.067 406.789 378.545 406.277 378.545C405.764 378.545 405.346 379.912 405.346 381.581ZM323.468 409.72C318.39 411.22 313.807 412.918 313.284 413.491C312.759 414.064 312.014 421.569 311.628 430.169C311.094 442.058 311.27 445.796 312.363 445.776C313.154 445.761 316.439 444.3 319.662 442.531C325.955 439.077 327.066 437.002 327.267 428.34C327.391 422.998 329.525 417.757 332.623 415.189C334.468 413.659 335.267 406.808 333.587 406.928C333.1 406.962 328.546 408.219 323.468 409.72ZM423.065 421.024C423.76 422.322 424.594 423.384 424.919 423.384C425.244 423.384 424.942 422.322 424.246 421.024C423.55 419.726 422.716 418.664 422.391 418.664C422.067 418.664 422.369 419.726 423.065 421.024ZM270.686 444.55C270.686 447.493 269.798 448.498 264.804 451.213C258.661 454.554 258.359 455.025 257.076 463.255C256.507 466.915 255.354 469.007 252.913 470.809C248.963 473.727 248.829 474.013 245.279 487.079C242.132 498.663 244.053 497.24 248.992 484.329C250.833 479.512 254.048 473.978 256.625 471.187C260.14 467.376 261.155 465.257 261.451 461.106C261.776 456.556 262.303 455.643 265.371 454.305C267.32 453.455 269.712 452.335 270.686 451.816C272.747 450.719 273.868 441.083 271.935 441.083C271.248 441.083 270.686 442.643 270.686 444.55ZM429.732 453.178C429.148 455.399 431.181 457.852 442.152 468.171C456.442 481.61 456.189 480.734 446.394 482.892C441.694 483.927 442.403 486.409 448.135 488.987C455.488 492.295 464.408 499.715 464.408 502.524C464.408 503.975 465.844 505.699 468.071 506.922C470.085 508.026 473.673 510.385 476.044 512.163C478.415 513.94 485.138 518.651 490.985 522.629L501.617 529.866L490.395 518.455C484.223 512.179 474.757 503.22 469.357 498.548C460.27 490.682 459.585 489.776 460.112 486.32C460.615 483.032 459.624 481.341 451.816 472.16C444.586 463.657 431.755 450.523 430.68 450.523C430.541 450.523 430.114 451.717 429.732 453.178ZM335.625 466.252C333.34 468.309 329.621 471.418 327.36 473.159C324.545 475.329 324.008 476.144 325.652 475.744C328.414 475.073 341.269 464.057 340.375 463.129C340.048 462.789 337.91 464.194 335.625 466.252ZM332.059 476.27C328.505 477.834 321.479 485.154 321.479 487.292C321.479 488.485 321.08 489.483 320.593 489.508C320.106 489.534 315.986 493.032 311.439 497.283C306.891 501.533 303.967 504.621 304.942 504.145C309.454 501.942 336.905 484.417 336.49 484.005C336.233 483.747 333.731 484.344 330.929 485.332C328.127 486.32 325.52 486.807 325.134 486.415C324.408 485.678 333.196 477.711 334.768 477.68C335.254 477.67 335.654 477.131 335.654 476.482C335.654 475.154 334.721 475.099 332.059 476.27Z" fill="black"/>
<path d="M30.8 643V574.6H3.2V570H63.5V574.6H35.9V643H30.8ZM75.8992 643V570H80.7992V598.9H80.9992C82.8659 596.1 85.5326 593.933 88.9992 592.4C92.4659 590.8 96.3659 590 100.699 590C106.966 590 111.566 591.733 114.499 595.2C117.433 598.6 118.899 603.867 118.899 611V643H113.999V611.7C113.999 605.767 112.833 601.4 110.499 598.6C108.166 595.733 104.566 594.3 99.6992 594.3C96.0326 594.3 92.7659 595.033 89.8992 596.5C87.0326 597.967 84.7992 600 83.1992 602.6C81.5992 605.133 80.7992 608.067 80.7992 611.4V643H75.8992ZM157.07 644C148.67 644 142.203 641.667 137.67 637C133.136 632.333 130.87 625.667 130.87 617C130.87 608.6 133.003 602 137.27 597.2C141.603 592.4 147.503 590 154.97 590C162.17 590 167.67 592.267 171.47 596.8C175.336 601.267 177.27 607.733 177.27 616.2C177.27 616.667 177.236 617.1 177.17 617.5C177.17 617.9 177.17 618.267 177.17 618.6H133.57V614.5H173.77L172.57 616C172.57 608.8 171.07 603.367 168.07 599.7C165.136 596.033 160.77 594.2 154.97 594.2C148.903 594.2 144.17 596.167 140.77 600.1C137.436 603.967 135.77 609.5 135.77 616.7V617.7C135.77 624.9 137.57 630.367 141.17 634.1C144.77 637.833 150.036 639.7 156.97 639.7C159.903 639.7 162.836 639.4 165.77 638.8C168.77 638.133 171.503 637.233 173.97 636.1L175.07 640.2C172.47 641.4 169.603 642.333 166.47 643C163.403 643.667 160.27 644 157.07 644ZM254.638 644C246.704 644 239.838 642.5 234.038 639.5C228.304 636.433 223.871 632.1 220.738 626.5C217.604 620.9 216.038 614.233 216.038 606.5C216.038 598.767 217.571 592.1 220.638 586.5C223.771 580.9 228.204 576.6 233.938 573.6C239.671 570.533 246.504 569 254.438 569C258.838 569 262.971 569.5 266.838 570.5C270.771 571.5 274.338 572.967 277.538 574.9L276.038 579.2C273.038 577.333 269.704 575.933 266.037 575C262.438 574.067 258.571 573.6 254.438 573.6C247.571 573.6 241.638 574.933 236.637 577.6C231.704 580.2 227.904 583.967 225.238 588.9C222.571 593.833 221.238 599.7 221.238 606.5C221.238 613.3 222.571 619.167 225.238 624.1C227.904 629.033 231.738 632.833 236.738 635.5C241.738 638.1 247.704 639.4 254.638 639.4C258.571 639.4 262.538 639 266.538 638.2C270.604 637.333 274.104 636.167 277.038 634.7L275.738 637.1V607.1H245.538V602.6H280.738V638.5C277.271 640.233 273.204 641.6 268.538 642.6C263.871 643.533 259.238 644 254.638 644ZM298.555 643V591H303.355V602.8H303.555C304.955 600.2 306.855 597.967 309.255 596.1C311.722 594.167 314.555 592.667 317.755 591.6C320.955 590.533 324.322 590 327.855 590V594.5C323.322 594.5 319.189 595.467 315.455 597.4C311.789 599.267 308.855 601.833 306.655 605.1C304.522 608.367 303.455 612 303.455 616V643H298.555ZM355.995 644C347.595 644 341.129 641.667 336.595 637C332.062 632.333 329.795 625.667 329.795 617C329.795 608.6 331.929 602 336.195 597.2C340.529 592.4 346.429 590 353.895 590C361.095 590 366.595 592.267 370.395 596.8C374.262 601.267 376.195 607.733 376.195 616.2C376.195 616.667 376.162 617.1 376.095 617.5C376.095 617.9 376.095 618.267 376.095 618.6H332.495V614.5H372.695L371.495 616C371.495 608.8 369.995 603.367 366.995 599.7C364.062 596.033 359.695 594.2 353.895 594.2C347.829 594.2 343.095 596.167 339.695 600.1C336.362 603.967 334.695 609.5 334.695 616.7V617.7C334.695 624.9 336.495 630.367 340.095 634.1C343.695 637.833 348.962 639.7 355.895 639.7C358.829 639.7 361.762 639.4 364.695 638.8C367.695 638.133 370.429 637.233 372.895 636.1L373.995 640.2C371.395 641.4 368.529 642.333 365.395 643C362.329 643.667 359.195 644 355.995 644ZM393.678 664L403.378 642.2L382.078 591.2L387.278 591L405.778 636.8H405.978L425.778 591H431.078L398.878 664H393.678ZM492.421 643V574.6H464.821V570H525.121V574.6H497.521V643H492.421ZM541.605 644C533.871 644 527.805 641.633 523.405 636.9C519.071 632.1 516.905 625.467 516.905 617C516.905 608.533 519.071 601.933 523.405 597.2C527.805 592.4 533.871 590 541.605 590C549.338 590 555.371 592.4 559.705 597.2C564.105 601.933 566.305 608.533 566.305 617C566.305 625.467 564.105 632.1 559.705 636.9C555.371 641.633 549.338 644 541.605 644ZM541.605 639.7C547.871 639.7 552.738 637.733 556.205 633.8C559.671 629.8 561.405 624.2 561.405 617C561.405 609.8 559.671 604.233 556.205 600.3C552.738 596.3 547.871 594.3 541.605 594.3C535.405 594.3 530.538 596.3 527.005 600.3C523.538 604.233 521.805 609.8 521.805 617C521.805 624.2 523.538 629.8 527.005 633.8C530.538 637.733 535.405 639.7 541.605 639.7ZM588.61 643L573.31 591H578.61L591.71 638.1H591.91L604.81 591H611.71L624.61 638.1H624.81L637.91 591H643.21L627.91 643H621.31L608.41 596.2H608.21L595.21 643H588.61ZM676.405 644C668.005 644 661.539 641.667 657.005 637C652.472 632.333 650.205 625.667 650.205 617C650.205 608.6 652.339 602 656.605 597.2C660.939 592.4 666.839 590 674.305 590C681.505 590 687.005 592.267 690.805 596.8C694.672 601.267 696.605 607.733 696.605 616.2C696.605 616.667 696.572 617.1 696.505 617.5C696.505 617.9 696.505 618.267 696.505 618.6H652.905V614.5H693.105L691.905 616C691.905 608.8 690.405 603.367 687.405 599.7C684.472 596.033 680.105 594.2 674.305 594.2C668.239 594.2 663.505 596.167 660.105 600.1C656.772 603.967 655.105 609.5 655.105 616.7V617.7C655.105 624.9 656.905 630.367 660.505 634.1C664.105 637.833 669.372 639.7 676.305 639.7C679.239 639.7 682.172 639.4 685.105 638.8C688.105 638.133 690.839 637.233 693.305 636.1L694.405 640.2C691.805 641.4 688.939 642.333 685.805 643C682.739 643.667 679.605 644 676.405 644ZM710.177 643V591H714.977V602.8H715.177C716.577 600.2 718.477 597.967 720.877 596.1C723.343 594.167 726.177 592.667 729.377 591.6C732.577 590.533 735.943 590 739.477 590V594.5C734.943 594.5 730.81 595.467 727.077 597.4C723.41 599.267 720.477 601.833 718.277 605.1C716.143 608.367 715.077 612 715.077 616V643H710.177Z" fill="black"/>
</svg>
