<svg width="737" height="95" viewBox="0 0 737 95" fill="none" xmlns="http://www.w3.org/2000/svg">
<path d="M27.8 74V5.6H0.2V0.999998H60.5V5.6H32.9V74H27.8ZM72.8992 74V0.999998H77.7992V29.9H77.9992C79.8659 27.1 82.5326 24.9333 85.9992 23.4C89.4659 21.8 93.3659 21 97.6992 21C103.966 21 108.566 22.7333 111.499 26.2C114.433 29.6 115.899 34.8667 115.899 42V74H110.999V42.7C110.999 36.7667 109.833 32.4 107.499 29.6C105.166 26.7333 101.566 25.3 96.6992 25.3C93.0326 25.3 89.7659 26.0333 86.8992 27.5C84.0326 28.9667 81.7992 31 80.1992 33.6C78.5992 36.1333 77.7992 39.0667 77.7992 42.4V74H72.8992ZM154.07 75C145.67 75 139.203 72.6667 134.67 68C130.136 63.3333 127.87 56.6667 127.87 48C127.87 39.6 130.003 33 134.27 28.2C138.603 23.4 144.503 21 151.97 21C159.17 21 164.67 23.2667 168.47 27.8C172.336 32.2667 174.27 38.7333 174.27 47.2C174.27 47.6667 174.236 48.1 174.17 48.5C174.17 48.9 174.17 49.2667 174.17 49.6H130.57V45.5H170.77L169.57 47C169.57 39.8 168.07 34.3667 165.07 30.7C162.136 27.0333 157.77 25.2 151.97 25.2C145.903 25.2 141.17 27.1667 137.77 31.1C134.436 34.9667 132.77 40.5 132.77 47.7V48.7C132.77 55.9 134.57 61.3667 138.17 65.1C141.77 68.8333 147.036 70.7 153.97 70.7C156.903 70.7 159.836 70.4 162.77 69.8C165.77 69.1333 168.503 68.2333 170.97 67.1L172.07 71.2C169.47 72.4 166.603 73.3333 163.47 74C160.403 74.6667 157.27 75 154.07 75ZM251.638 75C243.704 75 236.838 73.5 231.038 70.5C225.304 67.4333 220.871 63.1 217.738 57.5C214.604 51.9 213.038 45.2333 213.038 37.5C213.038 29.7667 214.571 23.1 217.638 17.5C220.771 11.9 225.204 7.6 230.938 4.6C236.671 1.53333 243.504 -9.53674e-07 251.438 -9.53674e-07C255.838 -9.53674e-07 259.971 0.499999 263.838 1.5C267.771 2.5 271.338 3.96666 274.538 5.89999L273.038 10.2C270.038 8.33333 266.704 6.93333 263.037 6C259.438 5.06667 255.571 4.6 251.438 4.6C244.571 4.6 238.638 5.93333 233.637 8.6C228.704 11.2 224.904 14.9667 222.238 19.9C219.571 24.8333 218.238 30.7 218.238 37.5C218.238 44.3 219.571 50.1667 222.238 55.1C224.904 60.0333 228.738 63.8333 233.738 66.5C238.738 69.1 244.704 70.4 251.638 70.4C255.571 70.4 259.538 70 263.538 69.2C267.604 68.3333 271.104 67.1667 274.038 65.7L272.738 68.1V38.1H242.538V33.6H277.738V69.5C274.271 71.2333 270.204 72.6 265.538 73.6C260.871 74.5333 256.238 75 251.638 75ZM295.555 74V22H300.355V33.8H300.555C301.955 31.2 303.855 28.9667 306.255 27.1C308.722 25.1667 311.555 23.6667 314.755 22.6C317.955 21.5333 321.322 21 324.855 21V25.5C320.322 25.5 316.189 26.4667 312.455 28.4C308.789 30.2667 305.855 32.8333 303.655 36.1C301.522 39.3667 300.455 43 300.455 47V74H295.555ZM352.995 75C344.595 75 338.129 72.6667 333.595 68C329.062 63.3333 326.795 56.6667 326.795 48C326.795 39.6 328.929 33 333.195 28.2C337.529 23.4 343.429 21 350.895 21C358.095 21 363.595 23.2667 367.395 27.8C371.262 32.2667 373.195 38.7333 373.195 47.2C373.195 47.6667 373.162 48.1 373.095 48.5C373.095 48.9 373.095 49.2667 373.095 49.6H329.495V45.5H369.695L368.495 47C368.495 39.8 366.995 34.3667 363.995 30.7C361.062 27.0333 356.695 25.2 350.895 25.2C344.829 25.2 340.095 27.1667 336.695 31.1C333.362 34.9667 331.695 40.5 331.695 47.7V48.7C331.695 55.9 333.495 61.3667 337.095 65.1C340.695 68.8333 345.962 70.7 352.895 70.7C355.829 70.7 358.762 70.4 361.695 69.8C364.695 69.1333 367.429 68.2333 369.895 67.1L370.995 71.2C368.395 72.4 365.529 73.3333 362.395 74C359.329 74.6667 356.195 75 352.995 75ZM390.678 95L400.378 73.2L379.078 22.2L384.278 22L402.778 67.8H402.978L422.778 22H428.078L395.878 95H390.678ZM489.421 74V5.6H461.821V0.999998H522.121V5.6H494.521V74H489.421ZM538.605 75C530.871 75 524.805 72.6333 520.405 67.9C516.071 63.1 513.905 56.4667 513.905 48C513.905 39.5333 516.071 32.9333 520.405 28.2C524.805 23.4 530.871 21 538.605 21C546.338 21 552.371 23.4 556.705 28.2C561.105 32.9333 563.305 39.5333 563.305 48C563.305 56.4667 561.105 63.1 556.705 67.9C552.371 72.6333 546.338 75 538.605 75ZM538.605 70.7C544.871 70.7 549.738 68.7333 553.205 64.8C556.671 60.8 558.405 55.2 558.405 48C558.405 40.8 556.671 35.2333 553.205 31.3C549.738 27.3 544.871 25.3 538.605 25.3C532.405 25.3 527.538 27.3 524.005 31.3C520.538 35.2333 518.805 40.8 518.805 48C518.805 55.2 520.538 60.8 524.005 64.8C527.538 68.7333 532.405 70.7 538.605 70.7ZM585.61 74L570.31 22H575.61L588.71 69.1H588.91L601.81 22H608.71L621.61 69.1H621.81L634.91 22H640.21L624.91 74H618.31L605.41 27.2H605.21L592.21 74H585.61ZM673.405 75C665.005 75 658.539 72.6667 654.005 68C649.472 63.3333 647.205 56.6667 647.205 48C647.205 39.6 649.339 33 653.605 28.2C657.939 23.4 663.839 21 671.305 21C678.505 21 684.005 23.2667 687.805 27.8C691.672 32.2667 693.605 38.7333 693.605 47.2C693.605 47.6667 693.572 48.1 693.505 48.5C693.505 48.9 693.505 49.2667 693.505 49.6H649.905V45.5H690.105L688.905 47C688.905 39.8 687.405 34.3667 684.405 30.7C681.472 27.0333 677.105 25.2 671.305 25.2C665.239 25.2 660.505 27.1667 657.105 31.1C653.772 34.9667 652.105 40.5 652.105 47.7V48.7C652.105 55.9 653.905 61.3667 657.505 65.1C661.105 68.8333 666.372 70.7 673.305 70.7C676.239 70.7 679.172 70.4 682.105 69.8C685.105 69.1333 687.839 68.2333 690.305 67.1L691.405 71.2C688.805 72.4 685.939 73.3333 682.805 74C679.739 74.6667 676.605 75 673.405 75ZM707.177 74V22H711.977V33.8H712.177C713.577 31.2 715.477 28.9667 717.877 27.1C720.343 25.1667 723.177 23.6667 726.377 22.6C729.577 21.5333 732.943 21 736.477 21V25.5C731.943 25.5 727.81 26.4667 724.077 28.4C720.41 30.2667 717.477 32.8333 715.277 36.1C713.143 39.3667 712.077 43 712.077 47V74H707.177Z" fill="black"/>
</svg>
