<svg width="125" height="189" viewBox="0 0 125 189" fill="none" xmlns="http://www.w3.org/2000/svg">
<path fill-rule="evenodd" clip-rule="evenodd" d="M61.7451 0.37069C61.6529 0.680161 61.0073 3.80922 60.3099 7.3241C57.3273 22.3569 52.3471 33.2397 43.4053 44.2643C40.1804 48.2402 39.1792 49.1108 35.6234 51.0307C32.5307 52.7005 32.5279 53.3497 35.6104 53.9347C36.964 54.1917 38.5166 54.693 39.0603 55.0486C40.0279 55.682 40.0485 55.8089 40.0485 61.1899C40.0485 66.6226 40.0631 66.7111 41.3552 69.0584L42.6618 71.4324L40.5409 84.0581C37.3548 103.023 33.18 130.379 33.1574 132.439L33.1375 134.257L32.4057 132.885C31.5765 131.33 31.5267 131.375 30.5441 134.555C29.9782 136.386 29.4462 137.186 28.0158 138.356L26.2043 139.838L26.4701 142.183C26.7654 144.789 26.2569 146.238 24.2913 148.397C23.3244 149.458 23.1238 150.161 22.6756 154.053C22.3871 156.556 21.9203 158.772 21.6068 159.127C21.301 159.473 19.7771 160.564 18.2209 161.551C16.0166 162.949 15.2884 163.658 14.9248 164.759C14.2884 166.686 13.9066 167.093 11.6743 168.222C10.0227 169.058 9.70671 169.416 9.46966 170.716C9.10882 172.697 7.322 176.249 4.53924 180.516C1.29733 185.487 0 187.744 0 188.412C0 188.922 4.04207 189 30.2904 189C54.1711 189 60.6703 188.892 61.004 188.491C61.8042 187.527 64.2423 178.692 65.0995 173.648C67.1812 161.396 67.1206 152.556 64.9155 146.761C64.3277 145.217 63.6076 143.317 63.3155 142.539C62.7091 140.924 62.3681 125.167 62.8851 122.642C63.1032 121.577 63.002 120.646 62.5441 119.503C62.1861 118.609 61.9078 117.291 61.9256 116.573C61.9547 115.38 62.0752 115.511 63.3321 118.096C64.6837 120.877 64.7079 121.021 64.7892 126.783C64.8604 131.795 64.981 132.783 65.627 133.628C66.2306 134.419 66.3665 135.234 66.3066 137.712L66.2318 140.807L68.2961 143.497C72.2164 148.605 72.8718 152.65 73.0833 173.042L73.2472 188.798L99.1234 188.902C113.356 188.959 125 188.866 125 188.695C125 188.523 124.367 187.444 123.592 186.295C121.464 183.139 119.938 179.883 118.768 176.002L117.712 172.498L115.693 171.828C113.741 171.181 112.46 170.013 112.46 168.881C112.46 167.766 109.12 159.851 108.177 158.732C107.64 158.094 107.201 157.385 107.201 157.157C107.201 156.928 106.749 156.205 106.197 155.55C104.636 153.697 103.502 150.658 103.502 148.326C103.502 146.436 103.317 146.005 101.576 143.838C100.037 141.923 99.5461 140.922 99.1359 138.859C98.3608 134.965 98.3317 134.899 97.0586 134.242C96.2071 133.802 95.8738 133.333 95.8738 132.574C95.8738 131.456 92.3734 125.166 91.7512 125.166C91.5498 125.166 91.1371 125.755 90.8341 126.475L90.2832 127.783L90.0882 126.374C89.981 125.599 88.5983 117.056 87.0154 107.39C85.4328 97.7241 83.4883 85.6523 82.6946 80.5638L81.2512 71.3116L82.5959 68.6629C83.9134 66.0667 83.9401 65.9087 83.9401 60.771V55.5285L85.2156 54.7803C85.9175 54.3686 87.4191 53.9222 88.553 53.788C89.8896 53.6301 90.6149 53.3529 90.6149 53.0006C90.6149 52.7017 89.4426 51.7179 88.0097 50.8137C84.8843 48.8426 81.896 45.6994 78.1197 40.4113C70.5028 29.7446 66.8742 21.2297 63.7314 6.64981C62.3495 0.240597 62.0578 -0.682159 61.7451 0.37069ZM55.8252 44.6801L53.6003 46.1826L53.4875 51.2747C53.3944 55.4809 53.4842 56.4573 54.0028 56.8872C54.5461 57.3373 54.3204 57.5647 52.3394 58.5622C51.0789 59.1973 49.9826 59.7169 49.9025 59.7169C49.5922 59.7169 49.7775 58.2419 50.1335 57.8786C50.3463 57.6613 50.4102 55.7301 50.2807 53.4224L50.0518 49.35L47.7808 50.5535C43.6084 52.7651 43.6084 52.7651 43.7136 58.1009C43.7642 60.6562 43.6659 63.073 43.4951 63.4714C42.9033 64.8531 43.6764 64.6583 47.2136 62.5357C49.1687 61.362 52.68 59.3844 55.0162 58.1404C59.1557 55.9362 59.3459 55.8788 62.5 55.8788H65.7362L72.411 59.4547C76.0821 61.4218 79.3863 63.2968 79.7536 63.6221C80.2783 64.0871 80.4883 64.1052 80.7354 63.7061C80.9134 63.4184 80.8434 63.13 80.5732 63.0403C80.2423 62.93 80.0971 61.3572 80.0971 57.8811C80.0971 52.2205 80.1553 52.3425 76.4769 50.3002L74.4337 49.1662L74.4159 51.3103C74.4061 52.49 74.2354 54.2729 74.036 55.2728C73.7516 56.6989 73.7989 57.1874 74.2557 57.5393C74.576 57.7861 74.8382 58.1845 74.8382 58.4245C74.8382 59.3698 73.9102 59.3416 72.4114 58.3509C70.93 57.372 70.8556 57.2262 71.1068 55.7879C71.2532 54.9492 71.3791 52.4467 71.3863 50.2271L71.3997 46.191L69.1748 44.6841C67.951 43.8555 66.7027 43.1715 66.4005 43.165C65.9555 43.1549 65.8774 44.2869 65.9911 49.1116C66.1116 54.247 66.0481 55.0437 65.5291 54.876C64.7451 54.6219 60.7091 54.6207 59.6683 54.874C58.8904 55.0631 58.8548 54.8401 58.7472 49.1116C58.6857 45.8339 58.5036 43.1581 58.3426 43.165C58.1816 43.1715 57.0489 43.8535 55.8252 44.6801ZM67.625 55.3378C67.6986 55.8574 68.032 56.2828 68.3657 56.2828C69.2431 56.2828 69.1222 54.7068 68.2318 54.5355C67.6574 54.4248 67.521 54.605 67.625 55.3378ZM55.8252 55.7103C55.8252 56.6949 56.7706 56.5559 56.9672 55.5423C57.0449 55.1435 56.8386 54.8688 56.4616 54.8688C56.0866 54.8688 55.8252 55.2142 55.8252 55.7103ZM76.6367 60.1561C76.2201 60.8299 77.1574 61.6024 77.7156 61.0449C78.1824 60.5786 77.8904 59.7169 77.2654 59.7169C77.0692 59.7169 76.7864 59.9145 76.6367 60.1561ZM46.5926 60.7944C46.7892 61.8081 47.7346 61.947 47.7346 60.9625C47.7346 60.4663 47.4733 60.1209 47.0983 60.1209C46.7213 60.1209 46.515 60.3956 46.5926 60.7944ZM58.8592 62.1405C58.1917 62.5203 55.4612 64.0576 52.7913 65.5573C46.9324 68.8479 46.1165 69.5416 46.1165 71.2344C46.1165 74.0815 41.1319 105.979 39.8293 111.466C39.0599 114.708 38.4304 117.894 38.4304 118.546C38.4304 120.069 36.5562 134.88 35.8289 139.105C35.5231 140.882 35.3204 142.387 35.3786 142.448C35.678 142.763 40.1832 141.943 40.6355 141.491C41.1339 140.993 41.4701 135.682 41.8515 122.287C41.9126 120.147 42.0886 118.193 42.2427 117.944C42.4276 117.645 42.0894 117.49 41.254 117.49C40.0348 117.49 39.9952 117.438 40.2585 116.177C40.8066 113.555 46.1735 105.389 47.3576 105.376C47.7063 105.373 49.0024 106.325 50.2375 107.491C53.5348 110.605 54.8479 114.662 52.5583 114.662C51.8722 114.662 51.765 114.808 52.0401 115.369C52.4761 116.258 52.7342 133.923 52.3766 138.408C52.1311 141.489 52.0016 141.867 50.7314 143.212C49.9733 144.015 49.3467 144.783 49.3394 144.919C49.2241 147.07 48.4992 150.792 48.1023 151.269C47.8188 151.611 46.4365 152.411 45.0307 153.048C42.4357 154.223 41.6711 155.167 41.663 157.21C41.6606 157.841 40.9915 158.523 39.3224 159.597C36.962 161.116 25.7375 171.439 23.6052 174.052L22.4515 175.466L24.0696 174.147C28.4365 170.587 32.3778 167.771 35.8548 165.727C41.286 162.535 42.6974 161.081 43.0093 158.353C43.3155 155.676 43.5999 155.33 46.5918 153.989C49.9964 152.463 50.5663 151.593 50.5663 147.921C50.5663 144.942 50.5744 144.92 52.3451 143.027C54.3499 140.884 55.1889 138.629 55.2342 135.267C55.2512 134.004 55.6574 132.016 56.1756 130.663C56.8855 128.809 57.0684 127.575 57.0024 125.088C56.9211 122.009 56.9632 121.849 58.1828 120.592L59.4478 119.289L59.8523 93.644C60.0752 79.5392 60.3556 66.6028 60.4753 64.8963C60.5955 63.1898 60.5542 61.7163 60.3835 61.6218C60.2124 61.5277 59.5267 61.7612 58.8592 62.1405ZM65.5328 64.6389C65.5316 68.6144 67.1003 87.7568 69.7176 115.699L70.5906 125.018L72.1772 126.406L73.7642 127.793L73.515 126.544C73.3778 125.857 73.1436 123.402 72.9947 121.09C72.8366 118.639 72.4866 116.507 72.157 115.981C71.6594 115.187 71.6772 114.984 72.3042 114.305C72.6966 113.881 73.746 112.523 74.6359 111.287C75.5259 110.051 76.4806 109.032 76.7573 109.023C77.398 109.001 79.4689 111.816 80.8301 114.559C81.6355 116.182 81.7702 116.789 81.4061 117.153C81.0421 117.516 80.8394 117.399 80.5396 116.65L80.1485 115.672L80.1226 116.594C80.1088 117.101 80.3746 117.622 80.7144 117.752C81.1893 117.934 81.2249 118.117 80.8681 118.546C80.4171 119.089 80.5053 122.642 81.1715 130.775L81.4159 133.757L82.9341 134.352C84.2443 134.867 84.6533 135.372 85.915 138.037C86.7192 139.735 87.3774 140.761 87.377 140.317C87.3758 137.185 84.9551 117.315 84.1157 113.546C82.9357 108.248 79.089 82.5463 78.0069 72.728C77.426 67.461 78.282 68.4071 70.2872 64.1901L65.534 61.6828L65.5328 64.6389ZM68.9725 77.141L69.1626 84.9675L71.2447 85.6887C72.39 86.085 73.4231 86.3133 73.5413 86.1957C73.659 86.0777 73.5566 85.2988 73.3135 84.4645C73.0704 83.6302 72.6954 80.157 72.4798 76.7463C72.2646 73.3357 71.9276 70.3848 71.7314 70.1888C71.5352 69.9929 70.7913 69.7157 70.0781 69.5735L68.782 69.3145L68.9725 77.141ZM52.589 73.4427C52.589 73.6593 52.0587 74.1101 51.4106 74.4451C50.0506 75.1472 50.0696 75.0107 49.3887 88.9369C49.1509 93.7935 48.8143 97.1662 48.5332 97.5043C47.9405 98.2174 48.3617 98.9058 49.39 98.9058C50.2629 98.9058 54.0125 97.1233 54.3762 96.5351C54.5008 96.3339 54.3091 95.9259 53.9498 95.6281C53.3649 95.1433 53.3277 93.9438 53.5918 84.0682C53.8584 74.1037 53.8244 73.0492 53.2379 73.0492C52.8811 73.0492 52.589 73.2262 52.589 73.4427ZM73.3479 95.4944L73.4223 104.173L75.445 104.937C77.4834 105.708 78.6023 105.488 77.7731 104.478C77.5275 104.179 77.2176 100.546 77.0489 95.982C76.8616 90.9214 76.5886 87.8792 76.3018 87.6554C76.053 87.4619 75.2698 87.1936 74.5615 87.0599L73.2735 86.8163L73.3479 95.4944ZM46.1392 108.725L45.1509 110.016L46.2023 109.072C47.4474 107.955 48.2799 108.233 49.9239 110.317C50.4947 111.04 50.964 111.405 50.9664 111.128C50.9725 110.461 48.1731 107.384 47.5866 107.412C47.3341 107.425 46.6828 108.015 46.1392 108.725ZM44.1149 111.401C43.0643 112.874 41.6841 115.874 41.6853 116.682C41.6857 117.016 42.106 116.269 42.6189 115.023C43.1323 113.777 43.9595 112.186 44.4575 111.488C44.9551 110.789 45.2714 110.218 45.1602 110.218C45.0489 110.218 44.5785 110.75 44.1149 111.401ZM50.7625 112.652C50.5975 112.919 50.7136 113.292 51.0202 113.482C51.693 113.9 52.0554 113.16 51.4664 112.571C51.197 112.302 50.9624 112.329 50.7625 112.652ZM71.1974 113.426C71.1974 113.636 71.3794 113.919 71.6019 114.056C71.8244 114.194 72.0065 114.022 72.0065 113.676C72.0065 113.33 71.8244 113.046 71.6019 113.046C71.3794 113.046 71.1974 113.217 71.1974 113.426ZM74.4337 130.65C74.4337 131.347 74.9535 132.156 76.0125 133.105C77.0138 134.003 77.6845 135.015 77.8451 135.871C78.0279 136.844 78.4915 137.453 79.5024 138.048C80.6833 138.744 80.9061 139.102 80.9061 140.303C80.9061 141.54 81.0356 141.731 81.8754 141.731C83.3556 141.731 85.498 144.354 85.2067 145.809C85.0097 146.794 85.4705 147.517 88.7108 151.308C90.7625 153.709 92.8697 156.274 93.3928 157.008C93.9159 157.741 94.4304 158.256 94.536 158.15C94.9555 157.731 92.9664 154.097 91.2354 152.121C89.3176 149.931 88.9895 149.275 90.0081 149.665C91.1699 150.11 90.5999 149.219 88.2888 146.975C84.9531 143.736 83.3584 141.767 82.5129 139.845C82.1056 138.919 81.2294 137.76 80.5659 137.27C79.7714 136.684 79.2682 135.879 79.0922 134.914C78.9138 133.936 78.201 132.811 76.9478 131.53C75.9155 130.474 74.9276 129.611 74.7524 129.611C74.5769 129.611 74.4337 130.078 74.4337 130.65ZM46.3932 140.285C44.6541 140.798 43.0845 141.379 42.9053 141.576C42.7257 141.772 42.4705 144.342 42.3382 147.286C42.1553 151.357 42.2156 152.637 42.5902 152.63C42.8608 152.625 43.9858 152.124 45.0898 151.519C47.2447 150.336 47.6254 149.626 47.6942 146.66C47.7366 144.831 48.4676 143.036 49.5283 142.157C50.1602 141.633 50.4341 139.287 49.8584 139.329C49.6917 139.34 48.1323 139.771 46.3932 140.285ZM80.5016 144.155C80.7399 144.599 81.0255 144.963 81.1367 144.963C81.248 144.963 81.1444 144.599 80.9061 144.155C80.6679 143.711 80.3823 143.347 80.271 143.347C80.1598 143.347 80.2633 143.711 80.5016 144.155ZM28.3172 152.21C28.3172 153.218 28.0129 153.562 26.3026 154.492C24.199 155.635 24.0955 155.796 23.6561 158.614C23.4612 159.868 23.0663 160.584 22.2306 161.201C20.8778 162.2 20.8317 162.298 19.6161 166.772C18.5384 170.738 19.1962 170.251 20.8875 165.83C21.5182 164.181 22.6193 162.286 23.5016 161.33C24.7055 160.026 25.053 159.3 25.1545 157.879C25.2658 156.321 25.4462 156.008 26.4968 155.55C27.1642 155.259 27.9834 154.876 28.3172 154.698C29.0231 154.322 29.407 151.023 28.7447 151.023C28.5097 151.023 28.3172 151.557 28.3172 152.21ZM82.7848 155.164C82.585 155.925 83.2811 156.764 87.0384 160.298C91.932 164.899 91.8455 164.599 88.4911 165.338C86.8815 165.692 87.1242 166.542 89.0874 167.425C91.6056 168.558 94.6602 171.098 94.6602 172.06C94.6602 172.557 95.1521 173.147 95.9146 173.566C96.6044 173.944 97.8333 174.751 98.6452 175.36C99.4571 175.969 101.76 177.581 103.762 178.944L107.403 181.422L103.56 177.514C101.446 175.365 98.2043 172.298 96.3552 170.698C93.2431 168.005 93.0085 167.695 93.1889 166.512C93.3612 165.386 93.0218 164.807 90.3479 161.663C87.8718 158.752 83.4777 154.255 83.1096 154.255C83.0619 154.255 82.9159 154.664 82.7848 155.164ZM50.5566 159.641C49.7739 160.345 48.5004 161.409 47.7261 162.006C46.7621 162.749 46.5781 163.027 47.1412 162.89C48.087 162.661 52.4895 158.889 52.1833 158.571C52.0712 158.455 51.339 158.936 50.5566 159.641ZM49.3354 163.071C48.1181 163.606 45.712 166.112 45.712 166.845C45.712 167.253 45.5752 167.595 45.4086 167.603C45.2419 167.612 43.8309 168.81 42.2735 170.265C40.716 171.721 39.7148 172.778 40.0485 172.615C41.5938 171.861 50.9947 165.86 50.8528 165.719C50.7646 165.631 49.9078 165.835 48.9482 166.173C47.9887 166.512 47.0959 166.678 46.9636 166.544C46.7152 166.292 49.7245 163.564 50.2629 163.553C50.4296 163.55 50.5663 163.366 50.5663 163.143C50.5663 162.688 50.2468 162.67 49.3354 163.071Z" fill="black"/>
</svg>
